<?xml version="1.0" encoding="UTF-8"?>
<svg version="1.1" xmlns="http://www.w3.org/2000/svg" width="1000" height="1000">
<path d="M0,0 L38,0 L54,3 L63,7 L71,13 L75,18 L91,69 L112,138 L122,168 L124,177 L126,181 L129,193 L133,204 L135,213 L138,221 L142,235 L151,265 L156,280 L164,306 L172,333 L197,414 L219,486 L244,567 L260,620 L260,623 L343,623 L351,626 L360,634 L364,643 L388,723 L412,802 L431,865 L458,955 L457,973 L454,983 L448,990 L437,994 L431,995 L258,995 L-404,994 L-410,990 L-416,983 L-419,975 L-419,960 L-415,945 L-391,866 L-367,786 L-343,707 L-324,644 L-318,634 L-307,626 L-297,623 L-221,622 L-197,543 L-174,467 L-154,401 L-134,335 L-122,295 L-101,226 L-81,160 L-61,94 L-43,34 L-35,17 L-30,11 L-18,4 L-7,1 Z " fill="#E57903" transform="translate(481,3)"/>
<path d="M0,0 L38,0 L54,3 L63,7 L71,13 L75,18 L91,69 L112,138 L122,168 L124,177 L126,181 L129,193 L133,204 L135,213 L138,221 L142,235 L151,265 L156,280 L164,306 L172,333 L197,414 L219,486 L244,567 L260,620 L267,644 L274,667 L272,671 L254,685 L234,698 L209,712 L185,723 L158,733 L139,739 L110,746 L94,749 L73,752 L45,754 L-6,754 L-42,751 L-76,745 L-97,740 L-119,733 L-141,725 L-166,714 L-189,702 L-209,689 L-224,678 L-234,670 L-231,658 L-221,625 L-217,609 L-194,533 L-174,467 L-154,401 L-134,335 L-122,295 L-101,226 L-81,160 L-61,94 L-43,34 L-35,17 L-30,11 L-18,4 L-7,1 Z " fill="#D96607" transform="translate(481,3)"/>
<path d="M0,0 L9,6 L24,16 L44,27 L67,37 L99,48 L136,56 L155,59 L181,61 L226,61 L260,58 L289,53 L313,47 L339,38 L364,27 L384,16 L396,8 L405,1 L408,1 L433,83 L444,119 L451,143 L458,166 L456,170 L438,184 L418,197 L393,211 L369,222 L342,232 L323,238 L294,245 L278,248 L257,251 L229,253 L178,253 L142,250 L108,244 L87,239 L65,232 L43,224 L18,213 L-5,201 L-25,188 L-40,177 L-50,169 L-47,157 L-37,124 L-33,108 L-10,32 L-1,2 Z " fill="#C3C8CB" transform="translate(297,504)"/>
<path d="M0,0 L38,0 L54,3 L63,7 L71,13 L75,18 L91,69 L112,138 L122,168 L124,177 L126,181 L129,193 L133,204 L135,213 L138,221 L142,235 L151,265 L156,280 L164,306 L166,314 L166,319 L152,326 L133,333 L116,338 L91,343 L65,347 L47,348 L-8,348 L-40,345 L-71,339 L-95,332 L-111,326 L-128,318 L-127,311 L-111,259 L-91,193 L-71,127 L-51,61 L-42,32 L-34,16 L-30,11 L-18,4 L-7,1 Z " fill="#BDC2C6" transform="translate(481,3)"/>
<path d="M0,0 L38,0 L54,3 L63,7 L71,13 L75,18 L91,69 L112,138 L112,140 L98,144 L80,148 L69,150 L34,153 L0,153 L-31,150 L-58,145 L-72,141 L-74,140 L-72,130 L-51,61 L-42,32 L-34,16 L-30,11 L-18,4 L-7,1 Z " fill="#E57206" transform="translate(481,3)"/>
</svg>
